<svg height="512" viewBox="0 0 64 64" width="512" xmlns="http://www.w3.org/2000/svg"><g id="Bill-Credit_Card-2" data-name="Bill-Credit Card"><rect fill="#00ccb3" height="30" rx="1" width="20" x="37" y="26"/><path d="m39 21v14l-2 4v21a1 1 0 0 1 -1 1h-26a1 1 0 0 1 -1-1v-21l-2-4v-14z" fill="#ff9811"/><path d="m41 26v9l-2 4v17h-1a1 1 0 0 1 -1-1v-16l2-4v-9z" fill="#00b39d"/><path d="m52.31 48.5a1.976 1.976 0 0 1 .69 1.5 2 2 0 0 1 -4 0 1.976 1.976 0 0 1 .69-1.5 1.966 1.966 0 0 0 2.62 0z" fill="#ff5023"/><path d="m52.31 48.5a2 2 0 0 1 -3.31-1.5 2 2 0 0 1 4 0 1.976 1.976 0 0 1 -.69 1.5z" fill="#ff9811"/><path d="m49 30h4v6h-4z" fill="#ff9811"/><path d="m11 15v6h-4v-5a1 1 0 0 1 1-1z" fill="#ee8700"/><path d="m39 16v5h-4v-6h3a1 1 0 0 1 1 1z" fill="#ee8700"/><path d="m20 51h6v6h-6z" fill="#78b9eb"/><path d="m26 45h6v6h-6z" fill="#78b9eb"/><path d="m14 45h6v6h-6z" fill="#78b9eb"/><path d="m20 39h6v6h-6z" fill="#78b9eb"/><g fill="#3d9ae2"><path d="m26 51h6v6h-6z"/><path d="m14 51h6v6h-6z"/><path d="m20 45h6v6h-6z"/><path d="m26 39h6v6h-6z"/><path d="m14 39h6v6h-6z"/></g><path d="m11 25h24v10h-24z" fill="#ffde55"/><path d="m35 4v17h-24v-17a1 1 0 0 1 1-1h22a1 1 0 0 1 1 1z" fill="#e6e7e8"/><path d="m35 6.26v14.74h-13.36a109.35 109.35 0 0 0 13.36-14.74z" fill="#d8d7da"/><path d="m40 43h2v2h-2z" fill="#00b39d"/><path d="m40 47h2v2h-2z" fill="#00b39d"/><path d="m40 51h2v2h-2z" fill="#00b39d"/><path d="m44 43h2v10h-2z" fill="#00b39d"/><path d="m14 3h2v3h-2z" fill="#d1d3d4"/><path d="m18 3h2v3h-2z" fill="#d1d3d4"/><path d="m22 3h2v3h-2z" fill="#d1d3d4"/><path d="m26 3h2v3h-2z" fill="#d1d3d4"/><path d="m30 3h2v3h-2z" fill="#d1d3d4"/><path d="m30 29h2v2h-2z" fill="#ebbf00"/><path d="m26 29h2v2h-2z" fill="#ebbf00"/><path d="m22 29h2v2h-2z" fill="#ebbf00"/><path d="m18 29h2v2h-2z" fill="#ebbf00"/><path d="m14 8h12v2h-12z" fill="#c6c5ca"/><path d="m28 8h4v2h-4z" fill="#acabb1"/><path d="m14 12h12v2h-12z" fill="#c6c5ca"/><path d="m28 12h4v2h-4z" fill="#acabb1"/><path d="m14 16h12v2h-12z" fill="#c6c5ca"/><path d="m28 16h4v2h-4z" fill="#acabb1"/></g></svg>