<svg height="512" viewBox="0 0 58 58" width="512" xmlns="http://www.w3.org/2000/svg"><g id="Page-1" fill="none" fill-rule="evenodd"><g id="027---UI-Design" fill-rule="nonzero"><path id="Shape" d="m3 52v-46l3-3h32l3 3v46l-3 3h-32z" fill="#3b97d3"/><path id="Rectangle-path" d="m48 43h10v6h-10z" fill="#bdc3c7"/><path id="Shape" d="m58 48v6c0 2.209139-1.790861 4-4 4h-2c-2.209139 0-4-1.790861-4-4v-6z" fill="#ff5364"/><circle id="Oval" cx="52" cy="54" fill="#fb7b76" r="1"/><path id="Shape" d="m55.29 4.44 2.71 7.56-5 2-5-2 2.71-7.56z" fill="#f9c795"/><path id="Shape" d="m55.29 4.44c-1.4353615.74670604-3.1446385.74670604-4.58 0l1.35-3.78c.1435417-.39548448.5192718-.65882556.94-.65882556s.7964583.26334108.94.65882556z" fill="#464f5d"/><g fill="#f0c419"><circle id="Oval" cx="3" cy="3" r="3"/><circle id="Oval" cx="3" cy="55" r="3"/><circle id="Oval" cx="41" cy="3" r="3"/><circle id="Oval" cx="41" cy="55" r="3"/></g><rect id="Rectangle-path" fill="#9fc9d3" height="10" rx="2" width="12" x="7" y="9"/><rect id="Rectangle-path" fill="#9fc9d3" height="10" rx="2" width="12" x="25" y="9"/><path id="Shape" d="m17 24h-8c-.55228475 0-1-.4477153-1-1s.44771525-1 1-1h8c.5522847 0 1 .4477153 1 1s-.4477153 1-1 1z" fill="#fff"/><path id="Shape" d="m17 28h-8c-.55228475 0-1-.4477153-1-1s.44771525-1 1-1h8c.5522847 0 1 .4477153 1 1s-.4477153 1-1 1z" fill="#fff"/><path id="Shape" d="m35 24h-8c-.5522847 0-1-.4477153-1-1s.4477153-1 1-1h8c.5522847 0 1 .4477153 1 1s-.4477153 1-1 1z" fill="#fff"/><path id="Shape" d="m35 28h-8c-.5522847 0-1-.4477153-1-1s.4477153-1 1-1h8c.5522847 0 1 .4477153 1 1s-.4477153 1-1 1z" fill="#fff"/><rect id="Rectangle-path" fill="#9fc9d3" height="10" rx="2" width="12" x="7" y="31"/><rect id="Rectangle-path" fill="#9fc9d3" height="10" rx="2" width="12" x="25" y="31"/><path id="Shape" d="m17 46h-8c-.55228475 0-1-.4477153-1-1s.44771525-1 1-1h8c.5522847 0 1 .4477153 1 1s-.4477153 1-1 1z" fill="#fff"/><path id="Shape" d="m17 50h-8c-.55228475 0-1-.4477153-1-1s.44771525-1 1-1h8c.5522847 0 1 .4477153 1 1s-.4477153 1-1 1z" fill="#fff"/><path id="Shape" d="m35 46h-8c-.5522847 0-1-.4477153-1-1s.4477153-1 1-1h8c.5522847 0 1 .4477153 1 1s-.4477153 1-1 1z" fill="#fff"/><path id="Shape" d="m35 50h-8c-.5522847 0-1-.4477153-1-1s.4477153-1 1-1h8c.5522847 0 1 .4477153 1 1s-.4477153 1-1 1z" fill="#fff"/><path id="Shape" d="m53 12h-5v32h5 5v-32z" fill="#f3d55b"/><path id="Rectangle-path" d="m53 12h5v32h-5z" fill="#f0c419"/></g></g></svg>