<svg id="Layer_3" enable-background="new 0 0 64 64" height="512" viewBox="0 0 64 64" width="512" xmlns="http://www.w3.org/2000/svg"><g><path d="m38 32h-32c-2.209 0-4-1.791-4-4v-22c0-2.209 1.791-4 4-4h32c2.209 0 4 1.791 4 4v22c0 2.209-1.791 4-4 4z" fill="#88929f"/><path d="m42 6c0-2.209-1.791-4-4-4h-32c-2.209 0-4 1.791-4 4v20h40z" fill="#c7e2fb"/><path d="m11 24c13.807 0 25-9.402 25-21 0-.335-.012-.668-.03-1h-29.97c-2.209 0-4 1.791-4 4v16.592c2.793.906 5.826 1.408 9 1.408z" fill="#ebf7fe"/><path d="m44 34h16v10h-16z" fill="#88929f"/><path d="m44 41.896c5.627-.573 10.552-3.547 13.827-7.896h-13.827z" fill="#a0a8b2"/><path d="m2 44h60v18h-60z" fill="#4d5d79"/><path d="m6 48h28v10h-28z" fill="#ebf7fe"/><path d="m13 44v-2c0-1.105.895-2 2-2h14c1.105 0 2 .895 2 2v2z" fill="#88929f"/><path d="m17 32h10v8h-10z" fill="#a0a8b2"/><path d="m22 13c-1.103 0-2-.897-2-2s.897-2 2-2 2 .897 2 2h2c0-1.858-1.279-3.411-3-3.858v-2.142h-2v2.142c-1.721.447-3 2-3 3.858 0 2.206 1.794 4 4 4 1.103 0 2 .897 2 2s-.897 2-2 2-2-.897-2-2h-2c0 1.858 1.279 3.411 3 3.858v2.142h2v-2.142c1.721-.447 3-2 3-3.858 0-2.206-1.794-4-4-4z" fill="#f5b95b"/><path d="m46 34v-11l3 3 3-3 3 3 3-3v11z" fill="#c7e2fb"/><g fill="#3c98f4"><path d="m38 48h4v4h-4z"/><path d="m46 48h4v4h-4z"/><path d="m54 48h4v4h-4z"/></g><g><path d="m37 56h22v2h-22z" fill="#3c98f4"/></g><path d="m12 48 2 4h12l2-4z" fill="#c7e2fb"/><g><path d="m49 29h6v2h-6z" fill="#fff"/></g><g><path d="m49 12h2v8h-2z" fill="#a0a8b2"/></g><g><path d="m53 10h2v7h-2z" fill="#a0a8b2"/></g></g></svg>